<svg xmlns="http://www.w3.org/2000/svg" viewBox="0 0 100 100" width="250" height="250">
  <style>
    .neon {
      fill: none;
      stroke: #d633ff; /* Color morado neón */
      stroke-width: 2.5;
      stroke-linecap: round;
      stroke-linejoin: round;
      /* Doble sombra para crear el efecto de luz realista */
      filter: drop-shadow(0px 0px 2px #d633ff) drop-shadow(0px 0px 6px #d633ff);
    }
  </style>

  <g class="neon">
    <circle cx="65" cy="55" r="28" />

    <circle cx="65" cy="55" r="3" />

    <line x1="67" y1="53" x2="75" y2="46" />

    <line x1="63" y1="53" x2="50" y2="40" />

    <path d="M 50 40 A 21 21 0 1 1 45 62" />

    <line x1="65" y1="27" x2="65" y2="23" />
    <rect x="59" y="17" width="12" height="6" rx="1" />

    <line x1="85" y1="35" x2="89" y2="31" />
    <line x1="87" y1="29" x2="91" y2="33" />

    <line x1="30" y1="37" x2="35" y2="37" />
    <line x1="39" y1="37" x2="47" y2="37" />
    
    <line x1="18" y1="44" x2="38" y2="44" />
    <line x1="42" y1="44" x2="47" y2="44" />
    
    <line x1="23" y1="51" x2="47" y2="51" />
    
    <line x1="25" y1="58" x2="29" y2="58" />
    <line x1="33" y1="58" x2="46" y2="58" />
  </g>
</svg>
